<svg viewBox="0 0 223 24" fill="none" xmlns="http://www.w3.org/2000/svg">
    <path d="M199.3 0H222.049V12.0202L217.114 14.5069L210.624 11.2681L216.235 8.51852V5.89226L205.114 5.79125V8.51852L222.049 16.9697V23.367L205.114 14.9495V22.6936H199.3V0Z" fill="black"/>
    <path d="M171.042 0.336914H193.825V23.0305H188.011V15.2864L182.433 18.1147V11.6164L188.011 8.85543V6.12816H176.856V8.85543L182.433 11.6164V18.1147L176.856 15.2864V23.0305H171.042V0.336914Z" fill="black"/>
    <path d="M122.975 8.78809L125.882 14.613H131.459V17.2056H120.372V6.09449H137.307V0.336914H114.524V23.0305H137.273V8.78809H122.975Z" fill="black"/>
    <path d="M142.851 23.0305V0.336914H165.599V6.09449L159.819 8.95644V6.12816H148.665V8.82176L154.343 8.78809V14.613H148.665V17.2393H159.819V14.411L165.599 17.2729V23.0305H142.851Z" fill="black"/>
    <path d="M0 0.336426H22.7488V12.3566L17.8137 14.8433L11.3237 11.6045L16.9349 8.85494V6.22868L5.81396 6.12767V8.85494L22.7488 17.3061V23.7034L5.81396 15.2859V23.03H0V0.336426Z" fill="black"/>
    <path d="M28.2588 0.336426H51.0414V23.03H45.2275V15.2859L39.6501 18.1142V11.6159L45.2275 8.85494V6.12767H34.0728V8.85494L39.6501 11.6159V18.1142L34.0728 15.2859V23.03H28.2588V0.336426Z" fill="black"/>
    <path d="M64.9681 8.7876L67.8751 14.6125H73.4524V17.2051H62.3653V6.094H79.3002V0.336426H56.5176V23.03H79.2664V8.7876H64.9681Z" fill="black"/>
    <path d="M84.7754 23.03V0.336426H107.524V6.094L101.744 8.95595V6.12767H90.5894V8.82127L96.2681 8.7876V14.6125H90.5894V17.2388H101.744V14.4105L107.524 17.2725V23.03H84.7754Z" fill="black"/>
</svg>
