<svg viewBox="0 0 274 50" fill="none" xmlns="http://www.w3.org/2000/svg">
    <path d="M251.251 13.2661H274V25.2863L269.065 27.773L262.575 24.5342L268.186 21.7846V19.1584L257.065 19.0574V21.7846L274 30.2358V36.6331L257.065 28.2156V35.9597H251.251V13.2661Z" fill="black"/>
    <path d="M222.993 13.603H245.776V36.2966H239.962V28.5525L234.384 31.3808V24.8825L239.962 22.1215V19.3943H228.807V22.1215L234.384 24.8825V31.3808L228.807 28.5525V36.2966H222.993V13.603Z" fill="black"/>
    <path d="M174.926 22.0542L177.833 27.8791H183.41V30.4717H172.323V19.3606H189.258V13.603H166.476V36.2966H189.224V22.0542H174.926Z" fill="black"/>
    <path d="M194.802 36.2966V13.603H217.551V19.3606L211.77 22.2226V19.3943H200.616V22.0879L206.294 22.0542V27.8791H200.616V30.5054H211.77V27.6771L217.551 30.5391V36.2966H194.802Z" fill="black"/>
    <path d="M114.285 0L114.319 50L137 38.6532L159.715 49.9663V0H114.285Z" fill="black"/>
    <path d="M121.992 7.67676V37.5757L129.361 33.9394V26.2626L152.076 37.5757V29.2929L129.361 18.1145V15.0168H144.64V22.5589L152.076 18.8552V7.67676H121.992Z" fill="#C1121C"/>
    <path d="M0 13.6025H22.7488V25.6227L17.8137 28.1094L11.3237 24.8706L16.9349 22.1211V19.4948L5.81396 19.3938V22.1211L22.7488 30.5722V36.9695L5.81396 28.552V36.2961H0V13.6025Z" fill="black"/>
    <path d="M28.2588 13.6025H51.0414V36.2961H45.2275V28.552L39.6501 31.3803V24.882L45.2275 22.1211V19.3938H34.0728V22.1211L39.6501 24.882V31.3803L34.0728 28.552V36.2961H28.2588V13.6025Z" fill="black"/>
    <path d="M64.9681 22.0537L67.8751 27.8786H73.4524V30.4712H62.3653V19.3601H79.3002V13.6025H56.5176V36.2961H79.2664V22.0537H64.9681Z" fill="black"/>
    <path d="M84.7754 36.2961V13.6025H107.524V19.3601L101.744 22.2221V19.3938H90.5894V22.0874L96.2681 22.0537V27.8786H90.5894V30.5049H101.744V27.6766L107.524 30.5386V36.2961H84.7754Z" fill="black"/>
</svg>
