<svg viewBox="0 0 24 24" fill="none" xmlns="http://www.w3.org/2000/svg">
    <path d="M17.9815 18.7252C17.2828 17.8001 16.3788 17.0498 15.3407 16.5336C14.3026 16.0173 13.1589 15.7491 11.9995 15.7502C10.8402 15.7491 9.69641 16.0173 8.65834 16.5336C7.62028 17.0498 6.71627 17.8001 6.01753 18.7252M17.9815 18.7252C19.345 17.5124 20.3066 15.9137 20.7407 14.1413C21.1748 12.3688 21.0598 10.5063 20.411 8.80067C19.7622 7.09506 18.6103 5.62697 17.1079 4.59109C15.6056 3.55521 13.8239 3.00049 11.999 3.00049C10.1742 3.00049 8.39246 3.55521 6.89013 4.59109C5.3878 5.62697 4.23585 7.09506 3.58706 8.80067C2.93826 10.5063 2.82328 12.3688 3.25734 14.1413C3.69141 15.9137 4.65403 17.5124 6.01753 18.7252M17.9815 18.7252C16.3355 20.1934 14.2052 21.0033 11.9995 21.0002C9.79355 21.0036 7.66376 20.1936 6.01753 18.7252M14.9995 9.75019C14.9995 10.5458 14.6835 11.3089 14.1208 11.8715C13.5582 12.4341 12.7952 12.7502 11.9995 12.7502C11.2039 12.7502 10.4408 12.4341 9.8782 11.8715C9.3156 11.3089 8.99953 10.5458 8.99953 9.75019C8.99953 8.95454 9.3156 8.19148 9.8782 7.62887C10.4408 7.06626 11.2039 6.75019 11.9995 6.75019C12.7952 6.75019 13.5582 7.06626 14.1208 7.62887C14.6835 8.19148 14.9995 8.95454 14.9995 9.75019Z" stroke="black" stroke-width="1.5" stroke-linecap="round" stroke-linejoin="round"/>
</svg>
